# xmcd
#
# Track frame offsets: 
#        150
#        9660
#        20671
#        31168
#        41994
#        52363
#        64635
#        76785
#        84225
#        94827
#        106600
#        115975
#        124590
#        134590
#        144138
#        156935
#        166076
#        173019
#        182990
#        192124
#        202078
#        213666
#        222402
#        242358
#        253920
#        266662
#        279431
#        290140
#
# Disc length: 3985 seconds
#
# Revision: 1
# Processed by: cddbd v1.5.2PL0 Copyright (c) Steve Scherf et al.
# Submitted via: ExactAudioCopyFreeDBPlugin 1.0
#
DISCID=9b0f8f1c
DTITLE=Various Artist - By the Bayou [Ace Records]
DYEAR=2014
DGENRE=Rhythm and Blues
TTITLE0=Tabby Thomas - Teenagers
TTITLE1=Jay Nelson - Silly Filly Oh Baby
TTITLE2=Wonder Boy Travis - She's Got Eyes Like a Cat
TTITLE3=Lester Robertson - Schooldays Schooldays
TTITLE4=King Karl - Walkin' in the Park
TTITLE5=TV Slim - Flat Foot Sam
TTITLE6=Lonesome Sundown - California Blues
TTITLE7=Johnny Sonnier - Sad Lover
TTITLE8=King Karl - When I Leave Here
TTITLE9=Otis Smith - You're So Good Looking
TTITLE10=Billy Tate - Pray On (Pray on My Child)
TTITLE11=Leroy Washington - Learn to Treat Me Better
TTITLE12=Tabby Thomas - Teenage Queen
TTITLE13=Lonesome Sundown - What You Wanna Do it For
TTITLE14=Leroy Washington - You Can't Trust Nobody
TTITLE15=Joe Richards - You'ld Better Change
TTITLE16=Chuck Martin - Dilly Waddy
TTITLE17=James "Sugar Boy" Crawford and His Canecutters - Round and Roun
TTITLE17=d
TTITLE18=Big Walter - San Antonio
TTITLE19=Little Victor - You Done Me Wrong
TTITLE20=Charles Sheffield - Boogie Children
TTITLE21=Wonder Boy Travis - She Went Thataway
TTITLE22=Classie Ballou - Oh Mama (Cajun Blues) (aka "Hey Ma Ma")
TTITLE23=Katie Webster and Ashton Conroy - Baby, Baby
TTITLE24=Carol Fran - Tomorrow
TTITLE25=Classie Ballou - Lucille
TTITLE26=Lester Robertson and The Upsetters - My Girl Across Town
TTITLE27=Ivory Jackson - I'm a Country Boy
EXTD=
EXTT0=
EXTT1=
EXTT2=
EXTT3=
EXTT4=
EXTT5=
EXTT6=
EXTT7=
EXTT8=
EXTT9=
EXTT10=
EXTT11=
EXTT12=
EXTT13=
EXTT14=
EXTT15=
EXTT16=
EXTT17=
EXTT18=
EXTT19=
EXTT20=
EXTT21=
EXTT22=
EXTT23=
EXTT24=
EXTT25=
EXTT26=
EXTT27=
PLAYORDER=
